# xmcd
#
# Track frame offsets:
# 180
# 21820
# 41270
# 64982
# 89270
# 106820
# 136507
# 160895
# 183070
# 200995
# 227320
# 250782
# 267070
#
# Disc length: 4290 seconds
#
#
# Revision: 0
# Processed by: cddbd v1.5.1PL0 Copyright (c) Steve Scherf et al.
# Submitted via: FreeRIP 2.931 
#
DISCID=9b10c00d
DTITLE=The Blue Band - Blue Ribbon Rhythm
DYEAR=0092
DGENRE=Blues
TTITLE0=Madness On Main Street
TTITLE1=Mercy Mercy
TTITLE2=The Hunter
TTITLE3=Good Legs
TTITLE4=Take Care Of My Heart
TTITLE5=Something For Nothing
TTITLE6=High Heeled Sneakers
TTITLE7=My Baby's Gone
TTITLE8=Can't Get No Grindin'
TTITLE9=Baby, Please Don't Go
TTITLE10=So Many Days
TTITLE11=Huston, Texas
TTITLE12=The Wilson Picket Medley
EXTD=Molly's still with the band on this CD
EXTT0=
EXTT1=
EXTT2=
EXTT3=
EXTT4=
EXTT5=
EXTT6=
EXTT7=
EXTT8=
EXTT9=
EXTT10=
EXTT11=
EXTT12=
PLAYORDER=
